<mxfile host="app.diagrams.net" agent="Mozilla/5.0 (Windows NT 10.0; Win64; x64) AppleWebKit/537.36 (KHTML, like Gecko) Chrome/134.0.0.0 Safari/537.36" version="26.1.1">
  <diagram name="PÃ¡gina-1" id="VFgdM0k-ih3tQ92cCzJZ">
    <mxGraphModel dx="1173" dy="592" grid="1" gridSize="10" guides="1" tooltips="1" connect="1" arrows="1" fold="1" page="1" pageScale="1" pageWidth="827" pageHeight="1169" math="0" shadow="0">
      <root>
        <mxCell id="0" />
        <mxCell id="1" parent="0" />
        <mxCell id="vY5j0IH2tt5QxX5CXEJY-1" value="Usuario" style="swimlane;fontStyle=1;align=center;verticalAlign=top;childLayout=stackLayout;horizontal=1;startSize=26;horizontalStack=0;resizeParent=1;resizeParentMax=0;resizeLast=0;collapsible=1;marginBottom=0;whiteSpace=wrap;html=1;" vertex="1" parent="1">
          <mxGeometry x="530" y="160" width="490" height="150" as="geometry" />
        </mxCell>
        <mxCell id="vY5j0IH2tt5QxX5CXEJY-2" value="-screenName: String" style="text;strokeColor=none;fillColor=none;align=left;verticalAlign=top;spacingLeft=4;spacingRight=4;overflow=hidden;rotatable=0;points=[[0,0.5],[1,0.5]];portConstraint=eastwest;whiteSpace=wrap;html=1;" vertex="1" parent="vY5j0IH2tt5QxX5CXEJY-1">
          <mxGeometry y="26" width="490" height="26" as="geometry" />
        </mxCell>
        <mxCell id="vY5j0IH2tt5QxX5CXEJY-3" value="" style="line;strokeWidth=1;fillColor=none;align=left;verticalAlign=middle;spacingTop=-1;spacingLeft=3;spacingRight=3;rotatable=0;labelPosition=right;points=[];portConstraint=eastwest;strokeColor=inherit;" vertex="1" parent="vY5j0IH2tt5QxX5CXEJY-1">
          <mxGeometry y="52" width="490" height="8" as="geometry" />
        </mxCell>
        <mxCell id="vY5j0IH2tt5QxX5CXEJY-4" value="&lt;div style=&quot;line-height: 140%;&quot;&gt;+&amp;lt;create&amp;gt;Usuario (screenName: String)&lt;br&gt;-getScreenName (): String&lt;br&gt;-getPublicaciones() Publicacion[*]&lt;br&gt;-postearTweet(texto:String): Tweet&lt;br&gt;-repostearTweet(tweet:Tweet):ReTweet&lt;br&gt;&lt;br&gt;&lt;div&gt;&lt;br&gt;&lt;br&gt;&lt;div&gt;&lt;/div&gt;&lt;/div&gt;&lt;/div&gt;" style="text;strokeColor=none;fillColor=none;align=left;verticalAlign=top;spacingLeft=4;spacingRight=4;overflow=hidden;rotatable=0;points=[[0,0.5],[1,0.5]];portConstraint=eastwest;whiteSpace=wrap;html=1;" vertex="1" parent="vY5j0IH2tt5QxX5CXEJY-1">
          <mxGeometry y="60" width="490" height="90" as="geometry" />
        </mxCell>
        <mxCell id="vY5j0IH2tt5QxX5CXEJY-5" value="Tweet" style="swimlane;fontStyle=1;align=center;verticalAlign=top;childLayout=stackLayout;horizontal=1;startSize=26;horizontalStack=0;resizeParent=1;resizeParentMax=0;resizeLast=0;collapsible=1;marginBottom=0;whiteSpace=wrap;html=1;" vertex="1" parent="1">
          <mxGeometry x="560" y="590" width="240" height="150" as="geometry" />
        </mxCell>
        <mxCell id="vY5j0IH2tt5QxX5CXEJY-6" value="-texto: String" style="text;strokeColor=none;fillColor=none;align=left;verticalAlign=top;spacingLeft=4;spacingRight=4;overflow=hidden;rotatable=0;points=[[0,0.5],[1,0.5]];portConstraint=eastwest;whiteSpace=wrap;html=1;" vertex="1" parent="vY5j0IH2tt5QxX5CXEJY-5">
          <mxGeometry y="26" width="240" height="26" as="geometry" />
        </mxCell>
        <mxCell id="vY5j0IH2tt5QxX5CXEJY-7" value="" style="line;strokeWidth=1;fillColor=none;align=left;verticalAlign=middle;spacingTop=-1;spacingLeft=3;spacingRight=3;rotatable=0;labelPosition=right;points=[];portConstraint=eastwest;strokeColor=inherit;" vertex="1" parent="vY5j0IH2tt5QxX5CXEJY-5">
          <mxGeometry y="52" width="240" height="8" as="geometry" />
        </mxCell>
        <mxCell id="vY5j0IH2tt5QxX5CXEJY-8" value="+&amp;lt;create&amp;gt; Tweet (texto:String):void" style="text;strokeColor=none;fillColor=none;align=left;verticalAlign=top;spacingLeft=4;spacingRight=4;overflow=hidden;rotatable=0;points=[[0,0.5],[1,0.5]];portConstraint=eastwest;whiteSpace=wrap;html=1;" vertex="1" parent="vY5j0IH2tt5QxX5CXEJY-5">
          <mxGeometry y="60" width="240" height="90" as="geometry" />
        </mxCell>
        <mxCell id="vY5j0IH2tt5QxX5CXEJY-9" value="&amp;lt;Interface&amp;gt;&lt;div&gt;Pulicacion&lt;/div&gt;" style="swimlane;fontStyle=0;childLayout=stackLayout;horizontal=1;startSize=26;fillColor=none;horizontalStack=0;resizeParent=1;resizeParentMax=0;resizeLast=0;collapsible=1;marginBottom=0;whiteSpace=wrap;html=1;" vertex="1" parent="1">
          <mxGeometry x="160" y="258" width="140" height="52" as="geometry" />
        </mxCell>
        <mxCell id="vY5j0IH2tt5QxX5CXEJY-10" value="-getTexto(): String" style="text;strokeColor=none;fillColor=none;align=left;verticalAlign=top;spacingLeft=4;spacingRight=4;overflow=hidden;rotatable=0;points=[[0,0.5],[1,0.5]];portConstraint=eastwest;whiteSpace=wrap;html=1;" vertex="1" parent="vY5j0IH2tt5QxX5CXEJY-9">
          <mxGeometry y="26" width="140" height="26" as="geometry" />
        </mxCell>
        <mxCell id="vY5j0IH2tt5QxX5CXEJY-19" style="edgeStyle=orthogonalEdgeStyle;rounded=0;orthogonalLoop=1;jettySize=auto;html=1;exitX=1;exitY=0.5;exitDx=0;exitDy=0;entryX=0;entryY=0.5;entryDx=0;entryDy=0;" edge="1" parent="1" source="vY5j0IH2tt5QxX5CXEJY-13" target="vY5j0IH2tt5QxX5CXEJY-6">
          <mxGeometry relative="1" as="geometry" />
        </mxCell>
        <mxCell id="vY5j0IH2tt5QxX5CXEJY-13" value="ReTweet" style="swimlane;fontStyle=0;childLayout=stackLayout;horizontal=1;startSize=26;fillColor=none;horizontalStack=0;resizeParent=1;resizeParentMax=0;resizeLast=0;collapsible=1;marginBottom=0;whiteSpace=wrap;html=1;" vertex="1" parent="1">
          <mxGeometry x="30" y="603" width="190" height="52" as="geometry" />
        </mxCell>
        <mxCell id="vY5j0IH2tt5QxX5CXEJY-14" value="-getTweetOrigen(): Tweet" style="text;strokeColor=none;fillColor=none;align=left;verticalAlign=top;spacingLeft=4;spacingRight=4;overflow=hidden;rotatable=0;points=[[0,0.5],[1,0.5]];portConstraint=eastwest;whiteSpace=wrap;html=1;" vertex="1" parent="vY5j0IH2tt5QxX5CXEJY-13">
          <mxGeometry y="26" width="190" height="26" as="geometry" />
        </mxCell>
        <mxCell id="vY5j0IH2tt5QxX5CXEJY-18" style="edgeStyle=orthogonalEdgeStyle;rounded=0;orthogonalLoop=1;jettySize=auto;html=1;exitX=1;exitY=0.5;exitDx=0;exitDy=0;" edge="1" parent="vY5j0IH2tt5QxX5CXEJY-13" source="vY5j0IH2tt5QxX5CXEJY-14" target="vY5j0IH2tt5QxX5CXEJY-14">
          <mxGeometry relative="1" as="geometry" />
        </mxCell>
        <mxCell id="vY5j0IH2tt5QxX5CXEJY-20" value="-tweetOrigen" style="text;html=1;align=center;verticalAlign=middle;whiteSpace=wrap;rounded=0;" vertex="1" parent="1">
          <mxGeometry x="470" y="600" width="80" height="30" as="geometry" />
        </mxCell>
        <mxCell id="vY5j0IH2tt5QxX5CXEJY-21" style="edgeStyle=orthogonalEdgeStyle;rounded=0;orthogonalLoop=1;jettySize=auto;html=1;exitX=0.5;exitY=0;exitDx=0;exitDy=0;entryX=0.364;entryY=1.077;entryDx=0;entryDy=0;entryPerimeter=0;endArrow=block;endFill=0;dashed=1;" edge="1" parent="1" source="vY5j0IH2tt5QxX5CXEJY-13" target="vY5j0IH2tt5QxX5CXEJY-10">
          <mxGeometry relative="1" as="geometry">
            <Array as="points">
              <mxPoint x="105" y="510" />
              <mxPoint x="381" y="510" />
            </Array>
          </mxGeometry>
        </mxCell>
        <mxCell id="vY5j0IH2tt5QxX5CXEJY-22" style="edgeStyle=orthogonalEdgeStyle;rounded=0;orthogonalLoop=1;jettySize=auto;html=1;exitX=0.25;exitY=0;exitDx=0;exitDy=0;entryX=0.679;entryY=1.077;entryDx=0;entryDy=0;entryPerimeter=0;endArrow=block;endFill=0;dashed=1;" edge="1" parent="1" source="vY5j0IH2tt5QxX5CXEJY-5" target="vY5j0IH2tt5QxX5CXEJY-10">
          <mxGeometry relative="1" as="geometry">
            <Array as="points">
              <mxPoint x="600" y="510" />
              <mxPoint x="425" y="510" />
            </Array>
          </mxGeometry>
        </mxCell>
        <mxCell id="vY5j0IH2tt5QxX5CXEJY-25" style="edgeStyle=orthogonalEdgeStyle;rounded=0;orthogonalLoop=1;jettySize=auto;html=1;exitX=0;exitY=0.5;exitDx=0;exitDy=0;entryX=1;entryY=0.5;entryDx=0;entryDy=0;" edge="1" parent="1" source="vY5j0IH2tt5QxX5CXEJY-4" target="vY5j0IH2tt5QxX5CXEJY-10">
          <mxGeometry relative="1" as="geometry" />
        </mxCell>
        <mxCell id="vY5j0IH2tt5QxX5CXEJY-26" value="-publicaciones (0,*)" style="text;html=1;align=center;verticalAlign=middle;whiteSpace=wrap;rounded=0;" vertex="1" parent="1">
          <mxGeometry x="330" y="300" width="120" height="30" as="geometry" />
        </mxCell>
        <mxCell id="vY5j0IH2tt5QxX5CXEJY-27" value="Twitter" style="swimlane;fontStyle=1;align=center;verticalAlign=top;childLayout=stackLayout;horizontal=1;startSize=26;horizontalStack=0;resizeParent=1;resizeParentMax=0;resizeLast=0;collapsible=1;marginBottom=0;whiteSpace=wrap;html=1;" vertex="1" parent="1">
          <mxGeometry x="10" y="95" width="340" height="60" as="geometry" />
        </mxCell>
        <mxCell id="vY5j0IH2tt5QxX5CXEJY-28" value="+&amp;lt;create&amp;gt;Twitter():void&lt;br&gt;-getUsuarios(): Usuario[*]" style="text;strokeColor=none;fillColor=none;align=left;verticalAlign=top;spacingLeft=4;spacingRight=4;overflow=hidden;rotatable=0;points=[[0,0.5],[1,0.5]];portConstraint=eastwest;whiteSpace=wrap;html=1;" vertex="1" parent="vY5j0IH2tt5QxX5CXEJY-27">
          <mxGeometry y="26" width="340" height="34" as="geometry" />
        </mxCell>
        <mxCell id="vY5j0IH2tt5QxX5CXEJY-31" style="edgeStyle=orthogonalEdgeStyle;rounded=0;orthogonalLoop=1;jettySize=auto;html=1;exitX=1;exitY=0.5;exitDx=0;exitDy=0;entryX=0.5;entryY=0;entryDx=0;entryDy=0;" edge="1" parent="1" target="vY5j0IH2tt5QxX5CXEJY-1">
          <mxGeometry relative="1" as="geometry">
            <mxPoint x="350" y="133" as="sourcePoint" />
          </mxGeometry>
        </mxCell>
        <mxCell id="vY5j0IH2tt5QxX5CXEJY-32" value="-usuarios (0,*)" style="text;html=1;align=center;verticalAlign=middle;whiteSpace=wrap;rounded=0;" vertex="1" parent="1">
          <mxGeometry x="580" y="110" width="140" height="30" as="geometry" />
        </mxCell>
      </root>
    </mxGraphModel>
  </diagram>
</mxfile>
